<svg width="24" height="24" viewBox="0 0 24 24" fill="none" xmlns="http://www.w3.org/2000/svg">
<path fill-rule="evenodd" clip-rule="evenodd" d="M10 5C8.89543 5 8 5.89543 8 7C8 8.10457 8.89543 9 10 9C11.1046 9 12 8.10457 12 7C12 5.89543 11.1046 5 10 5ZM6 7C6 4.79086 7.79086 3 10 3C12.2091 3 14 4.79086 14 7C14 9.20914 12.2091 11 10 11C7.79086 11 6 9.20914 6 7ZM12 13C12 12.4477 11.5523 12 11 12H8C5.23858 12 3 14.2386 3 17V18C3 19.6569 4.34315 21 6 21H14C15.6569 21 17 19.6569 17 18V17.5C17 16.9477 16.5523 16.5 16 16.5C15.4477 16.5 15 16.9477 15 17.5V18C15 18.5523 14.5523 19 14 19H6C5.44771 19 5 18.5523 5 18V17C5 15.3431 6.34315 14 8 14H11C11.5523 14 12 13.5523 12 13ZM20.7071 10.7071C21.0976 10.3166 21.0976 9.68342 20.7071 9.29289C20.3166 8.90237 19.6834 8.90237 19.2929 9.29289L16 12.5858L14.7071 11.2929C14.3166 10.9024 13.6834 10.9024 13.2929 11.2929C12.9024 11.6834 12.9024 12.3166 13.2929 12.7071L15.2929 14.7071C15.6834 15.0976 16.3166 15.0976 16.7071 14.7071L20.7071 10.7071Z" fill="#919BB6"/>
</svg>
