<svg width="24" height="24" viewBox="0 0 24 24" fill="none" xmlns="http://www.w3.org/2000/svg">
<path opacity="0.36" fill-rule="evenodd" clip-rule="evenodd" d="M4.01045 18H1C0.447715 18 0 18.4477 0 19V23C0 23.5523 0.447715 24 1 24H13.5H14C14.0756 24 14.1493 23.9916 14.2201 23.9757C19.6832 23.6057 24 19.0569 24 13.5C24 7.70101 19.299 3 13.5 3C7.70101 3 3 7.70101 3 13.5C3 15.1104 3.36254 16.6361 4.01045 18ZM13.5 18C15.9853 18 18 15.9853 18 13.5C18 11.0147 15.9853 9 13.5 9C11.0147 9 9 11.0147 9 13.5C9 15.9853 11.0147 18 13.5 18Z" fill="#919BB6"/>
<path opacity="0.36" d="M-1.42652e-06 5.5C-1.16097e-06 2.46243 2.46243 2.07296e-07 5.5 4.72849e-07C8.53757 7.38401e-07 11 2.46243 11 5.5C11 8.53757 8.53757 11 5.5 11C2.46243 11 -1.69208e-06 8.53757 -1.42652e-06 5.5Z" fill="#919BB6"/>
</svg>
