<svg width="24" height="24" viewBox="0 0 24 24" fill="none" xmlns="http://www.w3.org/2000/svg">
<path d="M4.66428 12C2.08827 12 -0.0811076 14.164 0.895165 16.5478C1.49283 18.0072 2.37797 19.3485 3.51472 20.4853C5.76515 22.7357 8.8174 24 12 24C15.1826 24 18.2348 22.7357 20.4853 20.4853C21.622 19.3485 22.5072 18.0072 23.1048 16.5478C24.0811 14.164 21.9117 12 19.3357 12L16.7695 12C15.6108 12 14.7083 13.0696 13.889 13.889C13.388 14.39 12.7085 14.6714 12 14.6714C11.2915 14.6714 10.612 14.39 10.111 13.889C9.29165 13.0696 8.38922 12 7.23047 12L4.66428 12Z" fill="#FF7188"/>
<path d="M12 20.5202C12 22.442 13.5897 24.0485 15.4313 23.499C16.8057 23.0888 18.1044 22.433 19.2613 21.5537C21.3493 19.9667 22.86 17.7393 23.5621 15.2123C24.2641 12.6853 24.119 9.99785 23.1488 7.56116C22.6114 6.21117 21.837 4.97934 20.8712 3.91903C19.577 2.49828 17.3865 3.05448 16.3951 4.70089L16.2898 4.87573C15.3566 6.42557 16.0137 8.45474 16.6829 10.1355C17.0904 11.159 17.1514 12.2878 16.8565 13.3493C16.5616 14.4107 15.927 15.3463 15.05 16.0129C13.6097 17.1076 12 18.507 12 20.3161V20.5202Z" fill="#3AE7BC"/>
<path fill-rule="evenodd" clip-rule="evenodd" d="M15.4313 23.499C13.5897 24.0485 12 22.442 12 20.5202V20.3161C12 18.507 13.6097 17.1076 15.05 16.0129C15.927 15.3463 16.5616 14.4107 16.8565 13.3493C16.9793 12.907 17.0404 12.4531 17.0404 12L19.3357 12C21.9117 12 24.0811 14.164 23.1048 16.5478C23.0362 16.7155 22.9637 16.8816 22.8875 17.046C22.7767 17.2851 22.6582 17.5202 22.5322 17.751C22.1149 18.5152 21.6154 19.2321 21.0426 19.8887C20.9024 20.0494 20.7577 20.2066 20.6088 20.3599C20.568 20.402 20.5268 20.4438 20.4853 20.4853C20.3906 20.58 20.2944 20.673 20.1969 20.7642C20.0911 20.8631 19.9835 20.9602 19.874 21.0554C19.6758 21.2278 19.4714 21.394 19.2613 21.5537C18.8275 21.8834 18.3737 22.1818 17.9035 22.4475C17.1927 22.8491 16.4444 23.1762 15.6705 23.4249C15.591 23.4504 15.5113 23.4751 15.4313 23.499Z" fill="#2E57DB"/>
<circle cx="7" cy="5" r="4" fill="#FF7188"/>
</svg>
