<svg width="16" height="16" viewBox="0 0 16 16" fill="none" xmlns="http://www.w3.org/2000/svg">
<path d="M4 1C2.34315 1 1 2.34315 1 4V5C1 5.51098 1.19162 5.9772 1.50693 6.33073C1.18677 6.80794 1 7.38216 1 8V9C1 9.51098 1.19162 9.9772 1.50693 10.3307C1.18677 10.8079 1 11.3822 1 12V13C1 14.1046 1.89543 15 3 15H5.5C6.05228 15 6.5 14.5523 6.5 14C6.5 13.4477 6.05228 13 5.5 13H3V12C3 11.4477 3.44772 11 4 11C4.55228 11 5 10.5523 5 10C5 9.44772 4.55228 9 4 9H3V8C3 7.44772 3.44772 7 4 7H5C5.55228 7 6 6.55228 6 6C6 5.44772 5.55228 5 5 5H3V4C3 3.44772 3.44772 3 4 3H8C8.36334 3 8.68142 3.19378 8.85654 3.48362C8.85867 3.48134 8.86081 3.47907 8.86295 3.47679C9.03231 3.78844 9.36255 4 9.74219 4C10.2945 4 10.7422 3.55228 10.7422 3C10.7422 2.76163 10.6588 2.54274 10.5196 2.37092C9.98503 1.54588 9.05626 1 8 1H4Z" fill="#919BB6"/>
<path fill-rule="evenodd" clip-rule="evenodd" d="M6 10C6 12.7614 8.23858 15 11 15C13.7614 15 16 12.7614 16 10C16 7.23858 13.7614 5 11 5C8.23858 5 6 7.23858 6 10ZM11 13C9.34315 13 8 11.6569 8 10C8 8.34315 9.34315 7 11 7C12.6569 7 14 8.34315 14 10C14 11.6569 12.6569 13 11 13Z" fill="#919BB6"/>
</svg>
