<svg width="16" height="16" viewBox="0 0 16 16" fill="none" xmlns="http://www.w3.org/2000/svg">
<path fill-rule="evenodd" clip-rule="evenodd" d="M8 2C7.16047 2 6.34222 2.26415 5.66116 2.75503C4.9801 3.24591 4.47075 3.93864 4.20527 4.73509C3.93978 5.53154 3.93163 6.39133 4.18195 7.19267C4.35956 7.76126 4.73075 8.19338 5.27422 8.78379C5.2964 8.80788 5.31895 8.83232 5.34182 8.8571C5.63388 9.17358 5.97881 9.54735 6.27896 10H9.72104C10.0212 9.54735 10.3661 9.17358 10.6582 8.8571C10.6811 8.83232 10.7036 8.80788 10.7258 8.78379C11.2692 8.19338 11.6404 7.76126 11.8181 7.19267C12.0684 6.39133 12.0602 5.53154 11.7947 4.73509C11.5293 3.93864 11.0199 3.24591 10.3388 2.75503C9.65778 2.26415 8.83953 2 8 2ZM11.2295 11.3696C11.4345 10.9743 11.7575 10.616 12.1973 10.1383L12.2165 10.1174C12.7298 9.5599 13.402 8.82981 13.7271 7.78901C14.1026 6.58699 14.0903 5.29731 13.6921 4.10263C13.2939 2.90796 12.5299 1.86887 11.5083 1.13255C10.4867 0.396224 9.25929 0 8 0C6.74071 0 5.51333 0.396224 4.49174 1.13255C3.47014 1.86887 2.70612 2.90796 2.3079 4.10263C1.90968 5.29731 1.89744 6.58699 2.27292 7.78901C2.59804 8.82981 3.27021 9.5599 3.7835 10.1174L3.80271 10.1383C4.24246 10.616 4.56547 10.9743 4.77053 11.3696C4.78788 11.4132 4.8082 11.4553 4.83124 11.4956C4.8604 11.5611 4.88647 11.6279 4.90945 11.6969C5.03354 12.0691 5.06825 12.4654 5.01078 12.8535C5.0036 12.902 5 12.951 5 13C5 13.7957 5.31607 14.5587 5.87868 15.1213C6.44129 15.6839 7.20435 16 8 16C8.79565 16 9.55871 15.6839 10.1213 15.1213C10.6839 14.5587 11 13.7957 11 13C11 12.951 10.9964 12.902 10.9892 12.8535C10.9317 12.4654 10.9665 12.0691 11.0906 11.6969C11.1135 11.6279 11.1396 11.561 11.1688 11.4956C11.1918 11.4553 11.2121 11.4132 11.2295 11.3696ZM8.98874 12H7.01126C7.04944 12.3504 7.04643 12.705 7.0016 13.0566C7.01545 13.3012 7.11873 13.5329 7.29289 13.7071C7.48043 13.8946 7.73478 14 8 14C8.26522 14 8.51957 13.8946 8.70711 13.7071C8.88127 13.5329 8.98455 13.3012 8.9984 13.0566C8.95357 12.705 8.95056 12.3504 8.98874 12Z" fill="#919BB6"/>
</svg>
