<svg width="16" height="16" viewBox="0 0 16 16" fill="none" xmlns="http://www.w3.org/2000/svg">
<path fill-rule="evenodd" clip-rule="evenodd" d="M8 15C11.866 15 15 11.866 15 8C15 4.13401 11.866 1 8 1C4.13401 1 1 4.13401 1 8C1 11.866 4.13401 15 8 15ZM10.6876 5.29132C10.2962 4.90168 9.66302 4.9031 9.27338 5.2945L7.99392 6.57973L6.70711 5.29291C6.31659 4.90239 5.68342 4.90239 5.2929 5.29291C4.90237 5.68344 4.90237 6.3166 5.2929 6.70713L6.58289 7.99712L5.29132 9.2945C4.90168 9.68591 4.9031 10.3191 5.2945 10.7087C5.6859 11.0984 6.31907 11.0969 6.70871 10.7055L7.99711 9.41133L9.2929 10.7071C9.68342 11.0977 10.3166 11.0977 10.7071 10.7071C11.0976 10.3166 11.0976 9.68344 10.7071 9.29291L9.40814 7.99394L10.6908 6.70553C11.0804 6.31413 11.079 5.68097 10.6876 5.29132Z" fill="#919BB6"/>
</svg>
