<svg width="16" height="16" viewBox="0 0 16 16" fill="none" xmlns="http://www.w3.org/2000/svg">
<g clip-path="url(#clip0_6763_110573)">
<path fill-rule="evenodd" clip-rule="evenodd" d="M8 2C4.68629 2 2 4.68629 2 8C2 11.3137 4.68629 14 8 14C11.3137 14 14 11.3137 14 8C14 4.68629 11.3137 2 8 2ZM0 8C0 3.58172 3.58172 0 8 0C12.4183 0 16 3.58172 16 8C16 12.4183 12.4183 16 8 16C3.58172 16 0 12.4183 0 8ZM5 6C5 4.89543 5.89543 4 7 4H8.43037C9.84954 4 11 5.15046 11 6.56963C11 7.56981 10.4196 8.47912 9.51247 8.90031L8.42111 9.40701C7.92018 9.63958 7.32556 9.42204 7.09299 8.92111C6.86042 8.42018 7.07796 7.82556 7.57889 7.59299L8.67025 7.08629C8.87135 6.99292 9 6.79135 9 6.56963C9 6.25503 8.74497 6 8.43037 6H7H5ZM8 12C8.55228 12 9 11.5523 9 11C9 10.4477 8.55228 10 8 10C7.44772 10 7 10.4477 7 11C7 11.5523 7.44772 12 8 12Z" fill="#919BB6"/>
</g>
<defs>
<clipPath id="clip0_6763_110573">
<rect width="16" height="16" fill="white"/>
</clipPath>
</defs>
</svg>
