<svg width="16" height="16" viewBox="0 0 16 16" fill="none" xmlns="http://www.w3.org/2000/svg">
<path fill-rule="evenodd" clip-rule="evenodd" d="M8 0C8.55228 0 9 0.447715 9 1V1.60002C11.2822 2.06329 13 4.08104 13 6.5V10L14.7929 11.7929C14.9255 11.9255 15 12.1054 15 12.2929C15 12.6834 14.6834 13 14.2929 13H1.70711C1.31658 13 1 12.6834 1 12.2929C1 12.1054 1.0745 11.9255 1.20711 11.7929L3 10V6.5C3 4.08104 4.71776 2.06329 7 1.60002V1C7 0.447715 7.44772 0 8 0ZM5 11H11V6.5C11 4.84315 9.65685 3.5 8 3.5C6.34315 3.5 5 4.84315 5 6.5V11Z" fill="#919BB6"/>
<path d="M8 16C6.89543 16 6 15.1046 6 14H10C10 15.1046 9.10457 16 8 16Z" fill="#919BB6"/>
</svg>
